HIERARCHY
ROOT mixamorig:Hips
{
	OFFSET -0.000008 104.274872 1.554316
	CHANNELS 6 Xposition Yposition Zposition Xrotation Yrotation Zrotation
	JOINT mixamorig:Spine
	{
		OFFSET -0.000005 10.181595 0.131519
		CHANNELS 6 Xposition Yposition Zposition Xrotation Yrotation Zrotation
		JOINT mixamorig:Spine1
		{
			OFFSET -0.000000 9.893959 -1.470707
			CHANNELS 6 Xposition Yposition Zposition Xrotation Yrotation Zrotation
			JOINT mixamorig:Spine2
			{
				OFFSET -0.000000 9.220757 -1.370641
				CHANNELS 6 Xposition Yposition Zposition Xrotation Yrotation Zrotation
				JOINT mixamorig:Neck
				{
					OFFSET 0.000001 16.740417 -2.049036
					CHANNELS 6 Xposition Yposition Zposition Xrotation Yrotation Zrotation
					JOINT mixamorig:Head
					{
						OFFSET 0.000000 9.617874 1.685006
						CHANNELS 6 Xposition Yposition Zposition Xrotation Yrotation Zrotation
						JOINT mixamorig:HeadTop_End
						{
							OFFSET 0.000002 22.037354 7.501101
							CHANNELS 6 Xposition Yposition Zposition Xrotation Yrotation Zrotation
							End Site
							{
								OFFSET 0.000168 2310.654297 -282.823242
							}
						}
					}
				}
				JOINT mixamorig:RightShoulder
				{
					OFFSET -4.569970 11.014908 -2.160885
					CHANNELS 6 Xposition Yposition Zposition Xrotation Yrotation Zrotation
					JOINT mixamorig:RightArm
					{
						OFFSET -10.592851 -0.524811 -2.232101
						CHANNELS 6 Xposition Yposition Zposition Xrotation Yrotation Zrotation
						JOINT mixamorig:RightForeArm
						{
							OFFSET -27.841511 0.000031 -0.000004
							CHANNELS 6 Xposition Yposition Zposition Xrotation Yrotation Zrotation
							JOINT mixamorig:RightHand
							{
								OFFSET -28.328831 -0.000015 0.000015
								CHANNELS 6 Xposition Yposition Zposition Xrotation Yrotation Zrotation
								JOINT mixamorig:RightHandThumb1
								{
									OFFSET -2.464806 -1.573990 2.681852
									CHANNELS 6 Xposition Yposition Zposition Xrotation Yrotation Zrotation
									JOINT mixamorig:RightHandThumb2
									{
										OFFSET -3.215179 -1.872803 1.924282
										CHANNELS 6 Xposition Yposition Zposition Xrotation Yrotation Zrotation
										JOINT mixamorig:RightHandThumb3
										{
											OFFSET -2.654831 -1.527969 1.512609
											CHANNELS 6 Xposition Yposition Zposition Xrotation Yrotation Zrotation
											JOINT mixamorig:RightHandThumb4
											{
												OFFSET -2.018814 -1.152008 1.108052
												CHANNELS 6 Xposition Yposition Zposition Xrotation Yrotation Zrotation
												End Site
												{
													OFFSET -188.809540 -114.533607 132.431396
												}
											}
										}
									}
								}
								JOINT mixamorig:RightHandIndex1
								{
									OFFSET -9.108284 -0.517868 2.259835
									CHANNELS 6 Xposition Yposition Zposition Xrotation Yrotation Zrotation
									JOINT mixamorig:RightHandIndex2
									{
										OFFSET -3.699989 0.000000 0.001215
										CHANNELS 6 Xposition Yposition Zposition Xrotation Yrotation Zrotation
										JOINT mixamorig:RightHandIndex3
										{
											OFFSET -2.850006 0.000031 -0.000522
											CHANNELS 6 Xposition Yposition Zposition Xrotation Yrotation Zrotation
											JOINT mixamorig:RightHandIndex4
											{
												OFFSET -2.772186 -0.000015 -0.000020
												CHANNELS 6 Xposition Yposition Zposition Xrotation Yrotation Zrotation
												End Site
												{
													OFFSET -277.218445 0.000000 -0.050231
												}
											}
										}
									}
								}
								JOINT mixamorig:RightHandMiddle1
								{
									OFFSET -9.532516 -0.000031 -0.000023
									CHANNELS 6 Xposition Yposition Zposition Xrotation Yrotation Zrotation
									JOINT mixamorig:RightHandMiddle2
									{
										OFFSET -3.700005 -0.000015 0.003713
										CHANNELS 6 Xposition Yposition Zposition Xrotation Yrotation Zrotation
										JOINT mixamorig:RightHandMiddle3
										{
											OFFSET -2.949974 0.000015 -0.002054
											CHANNELS 6 Xposition Yposition Zposition Xrotation Yrotation Zrotation
											JOINT mixamorig:RightHandMiddle4
											{
												OFFSET -2.946640 0.000000 -0.000156
												CHANNELS 6 Xposition Yposition Zposition Xrotation Yrotation Zrotation
												End Site
												{
													OFFSET -294.664337 0.000000 -0.113670
												}
											}
										}
									}
								}
								JOINT mixamorig:RightHandRing1
								{
									OFFSET -9.103600 -0.043076 -1.865134
									CHANNELS 6 Xposition Yposition Zposition Xrotation Yrotation Zrotation
									JOINT mixamorig:RightHandRing2
									{
										OFFSET -3.379288 0.000000 -0.001055
										CHANNELS 6 Xposition Yposition Zposition Xrotation Yrotation Zrotation
										JOINT mixamorig:RightHandRing3
										{
											OFFSET -2.889687 -0.000015 0.000379
											CHANNELS 6 Xposition Yposition Zposition Xrotation Yrotation Zrotation
											JOINT mixamorig:RightHandRing4
											{
												OFFSET -2.638809 -0.000015 0.000941
												CHANNELS 6 Xposition Yposition Zposition Xrotation Yrotation Zrotation
												End Site
												{
													OFFSET -263.880371 0.000000 0.516020
												}
											}
										}
									}
								}
								JOINT mixamorig:RightHandPinky1
								{
									OFFSET -8.076683 -0.486710 -3.806280
									CHANNELS 6 Xposition Yposition Zposition Xrotation Yrotation Zrotation
									JOINT mixamorig:RightHandPinky2
									{
										OFFSET -3.600014 -0.000015 -0.003747
										CHANNELS 6 Xposition Yposition Zposition Xrotation Yrotation Zrotation
										JOINT mixamorig:RightHandPinky3
										{
											OFFSET -2.099983 0.000000 -0.005739
											CHANNELS 6 Xposition Yposition Zposition Xrotation Yrotation Zrotation
											JOINT mixamorig:RightHandPinky4
											{
												OFFSET -2.115768 -0.000031 -0.003680
												CHANNELS 6 Xposition Yposition Zposition Xrotation Yrotation Zrotation
												End Site
												{
													OFFSET -211.577087 0.000000 -0.350686
												}
											}
										}
									}
								}
							}
						}
					}
				}
				JOINT mixamorig:LeftShoulder
				{
					OFFSET 4.570447 11.014725 -2.160855
					CHANNELS 6 Xposition Yposition Zposition Xrotation Yrotation Zrotation
					JOINT mixamorig:LeftArm
					{
						OFFSET 10.592371 -0.524597 -2.232119
						CHANNELS 6 Xposition Yposition Zposition Xrotation Yrotation Zrotation
						JOINT mixamorig:LeftForeArm
						{
							OFFSET 27.841532 -0.000031 0.000026
							CHANNELS 6 Xposition Yposition Zposition Xrotation Yrotation Zrotation
							JOINT mixamorig:LeftHand
							{
								OFFSET 28.328846 -0.000061 0.000022
								CHANNELS 6 Xposition Yposition Zposition Xrotation Yrotation Zrotation
								JOINT mixamorig:LeftHandThumb1
								{
									OFFSET 2.466141 -1.576172 2.681732
									CHANNELS 6 Xposition Yposition Zposition Xrotation Yrotation Zrotation
									JOINT mixamorig:LeftHandThumb2
									{
										OFFSET 3.217812 -1.872070 1.916482
										CHANNELS 6 Xposition Yposition Zposition Xrotation Yrotation Zrotation
										JOINT mixamorig:LeftHandThumb3
										{
											OFFSET 2.656029 -1.528778 1.514513
											CHANNELS 6 Xposition Yposition Zposition Xrotation Yrotation Zrotation
											JOINT mixamorig:LeftHandThumb4
											{
												OFFSET 2.020889 -1.154053 1.115139
												CHANNELS 6 Xposition Yposition Zposition Xrotation Yrotation Zrotation
												End Site
												{
													OFFSET 190.885437 -115.081749 130.048782
												}
											}
										}
									}
								}
								JOINT mixamorig:LeftHandIndex1
								{
									OFFSET 9.109314 -0.518021 2.259871
									CHANNELS 6 Xposition Yposition Zposition Xrotation Yrotation Zrotation
									JOINT mixamorig:LeftHandIndex2
									{
										OFFSET 3.699989 0.000000 -0.000322
										CHANNELS 6 Xposition Yposition Zposition Xrotation Yrotation Zrotation
										JOINT mixamorig:LeftHandIndex3
										{
											OFFSET 2.850006 0.000000 0.000352
											CHANNELS 6 Xposition Yposition Zposition Xrotation Yrotation Zrotation
											JOINT mixamorig:LeftHandIndex4
											{
												OFFSET 2.774864 -0.000031 -0.000027
												CHANNELS 6 Xposition Yposition Zposition Xrotation Yrotation Zrotation
												End Site
												{
													OFFSET 277.486267 0.000000 -0.009857
												}
											}
										}
									}
								}
								JOINT mixamorig:LeftHandMiddle1
								{
									OFFSET 9.533394 0.000061 0.000044
									CHANNELS 6 Xposition Yposition Zposition Xrotation Yrotation Zrotation
									JOINT mixamorig:LeftHandMiddle2
									{
										OFFSET 3.699989 -0.000015 -0.000231
										CHANNELS 6 Xposition Yposition Zposition Xrotation Yrotation Zrotation
										JOINT mixamorig:LeftHandMiddle3
										{
											OFFSET 2.949997 -0.000015 -0.000059
											CHANNELS 6 Xposition Yposition Zposition Xrotation Yrotation Zrotation
											JOINT mixamorig:LeftHandMiddle4
											{
												OFFSET 2.952896 0.000031 0.000063
												CHANNELS 6 Xposition Yposition Zposition Xrotation Yrotation Zrotation
												End Site
												{
													OFFSET 295.289337 0.000000 0.022810
												}
											}
										}
									}
								}
								JOINT mixamorig:LeftHandRing1
								{
									OFFSET 9.104523 -0.042999 -1.865074
									CHANNELS 6 Xposition Yposition Zposition Xrotation Yrotation Zrotation
									JOINT mixamorig:LeftHandRing2
									{
										OFFSET 3.150009 -0.000031 0.000043
										CHANNELS 6 Xposition Yposition Zposition Xrotation Yrotation Zrotation
										JOINT mixamorig:LeftHandRing3
										{
											OFFSET 2.949982 -0.000015 0.000040
											CHANNELS 6 Xposition Yposition Zposition Xrotation Yrotation Zrotation
											JOINT mixamorig:LeftHandRing4
											{
												OFFSET 2.644348 0.000000 0.000057
												CHANNELS 6 Xposition Yposition Zposition Xrotation Yrotation Zrotation
												End Site
												{
													OFFSET 264.434631 0.000000 0.012105
												}
											}
										}
									}
								}
								JOINT mixamorig:LeftHandPinky1
								{
									OFFSET 8.077789 -0.486847 -3.806259
									CHANNELS 6 Xposition Yposition Zposition Xrotation Yrotation Zrotation
									JOINT mixamorig:LeftHandPinky2
									{
										OFFSET 3.599953 0.000031 0.014727
										CHANNELS 6 Xposition Yposition Zposition Xrotation Yrotation Zrotation
										JOINT mixamorig:LeftHandPinky3
										{
											OFFSET 2.100021 0.000015 0.007705
											CHANNELS 6 Xposition Yposition Zposition Xrotation Yrotation Zrotation
											JOINT mixamorig:LeftHandPinky4
											{
												OFFSET 2.125504 0.000031 0.007517
												CHANNELS 6 Xposition Yposition Zposition Xrotation Yrotation Zrotation
												End Site
												{
													OFFSET 212.550781 0.000000 0.625752
												}
											}
										}
									}
								}
							}
						}
					}
				}
			}
		}
	}
	JOINT mixamorig:RightUpLeg
	{
		OFFSET -8.207787 -6.751648 -1.599560
		CHANNELS 6 Xposition Yposition Zposition Xrotation Yrotation Zrotation
		JOINT mixamorig:RightLeg
		{
			OFFSET -0.000002 -44.370117 0.345942
			CHANNELS 6 Xposition Yposition Zposition Xrotation Yrotation Zrotation
			JOINT mixamorig:RightFoot
			{
				OFFSET 0.000003 -44.423679 -3.043532
				CHANNELS 6 Xposition Yposition Zposition Xrotation Yrotation Zrotation
				JOINT mixamorig:RightToeBase
				{
					OFFSET -0.000002 -8.728671 10.710558
					CHANNELS 6 Xposition Yposition Zposition Xrotation Yrotation Zrotation
					JOINT mixamorig:RightToe_End
					{
						OFFSET -0.000001 -0.000679 9.278119
						CHANNELS 6 Xposition Yposition Zposition Xrotation Yrotation Zrotation
						End Site
						{
							OFFSET 0.000000 -0.067690 927.812134
						}
					}
				}
			}
		}
	}
	JOINT mixamorig:LeftUpLeg
	{
		OFFSET 8.207793 -6.751686 -1.599556
		CHANNELS 6 Xposition Yposition Zposition Xrotation Yrotation Zrotation
		JOINT mixamorig:LeftLeg
		{
			OFFSET -0.000004 -44.370014 0.346954
			CHANNELS 6 Xposition Yposition Zposition Xrotation Yrotation Zrotation
			JOINT mixamorig:LeftFoot
			{
				OFFSET -0.000001 -44.423672 -3.044401
				CHANNELS 6 Xposition Yposition Zposition Xrotation Yrotation Zrotation
				JOINT mixamorig:LeftToeBase
				{
					OFFSET -0.000002 -8.728669 10.710558
					CHANNELS 6 Xposition Yposition Zposition Xrotation Yrotation Zrotation
					JOINT mixamorig:LeftToe_End
					{
						OFFSET -0.000003 -0.000679 9.278133
						CHANNELS 6 Xposition Yposition Zposition Xrotation Yrotation Zrotation
						End Site
						{
							OFFSET 0.000000 -0.068021 927.813477
						}
					}
				}
			}
		}
	}
}
MOTION
Frames: 3
Frame Time: 0.033333
0.000006 104.270477 1.554256 0.000010 0.000003 -0.000113 -0.000005 10.181587 0.131522 0.000001 -0.000003 0.000084 -0.000000 9.893967 -1.470711 0.000001 0.000000 -0.000000 -0.000000 9.220802 -1.370642 0.000000 -0.000000 -0.000000 0.000001 16.740433 -2.049030 0.000000 -0.000000 -0.000000 0.000000 9.617859 1.685014 0.000000 0.000000 0.000000 0.000002 22.037384 7.501101 0.000000 -0.000000 0.000000 -4.569968 11.014880 -2.160881 0.000008 0.000001 -0.000038 -10.592876 -0.524694 -2.232000 73.051325 12.661905 -9.395351 -27.841541 0.000019 0.000533 118.228143 60.496071 -88.543376 -28.328827 0.000005 0.000024 -0.000320 -0.000046 0.000006 -2.464462 -1.573825 2.682383 -40.075838 -165.183959 10.832379 -3.215278 -1.872673 1.924706 161.405293 27.550739 -18.907506 -2.654942 -1.527912 1.513110 146.171676 25.634789 -52.830011 -2.018838 -1.152021 1.108063 -0.000000 -0.000003 0.000000 -9.108382 -0.517544 2.260117 99.360961 15.913017 -18.759157 -3.700088 0.000330 0.001505 95.162942 11.870662 -12.957167 -2.850067 0.000375 -0.000275 92.188272 9.063522 -9.413962 -2.772169 -0.000001 -0.000024 -0.000003 0.000002 0.000002 -9.532579 0.000286 0.000162 78.875154 13.391354 -11.145611 -3.700058 0.000322 0.003879 79.088789 8.298484 -6.780423 -2.950039 0.000326 -0.001904 77.128887 8.577422 -6.837724 -2.946617 0.000000 -0.000155 0.000000 0.000001 0.000000 -9.103687 -0.042771 -1.864952 72.837595 15.162757 -11.183508 -3.379293 0.000312 -0.000901 75.535513 6.297055 -4.893704 -2.889738 0.000332 0.000521 76.415207 3.841377 -3.058471 -2.638809 0.000000 0.000932 -0.000000 -0.000002 0.000000 -8.076732 -0.486408 -3.806120 65.368599 14.480291 -9.222693 -3.600006 0.000250 -0.003643 66.846044 4.817339 -2.955581 -2.100015 0.000292 -0.005616 67.490288 2.258424 -1.369082 -2.115764 -0.000040 -0.003681 0.000001 -0.000001 -0.000002 4.570446 11.014691 -2.160851 -0.000018 0.000010 -0.000021 10.592376 -0.524501 -2.232310 71.665418 -2.532172 1.828688 27.841846 0.000120 -0.000217 107.376154 -63.069571 79.723935 28.328823 -0.000029 0.000026 0.000021 -0.000089 0.000000 2.465960 -1.576142 2.681923 -42.916210 164.730844 -2.636850 3.217817 -1.871748 1.916368 157.468673 -29.932491 7.192263 2.656116 -1.528602 1.514447 144.376115 -27.217057 38.496606 2.020898 -1.154078 1.115149 0.000003 -0.000000 0.000003 9.109369 -0.517847 2.259741 86.845869 -13.913465 13.163120 3.700027 0.000173 -0.000470 83.613489 -11.903979 10.668550 2.850051 0.000179 0.000201 82.653328 -11.546030 10.159608 2.774869 -0.000035 -0.000037 -0.000001 -0.000002 0.000001 9.533461 0.000217 -0.000105 83.426683 -13.200330 11.769568 3.700052 0.000178 -0.000374 86.041696 -12.315296 11.495787 2.950074 0.000165 -0.000184 86.442164 -17.397853 16.367266 2.952862 -0.000032 0.000064 -0.000001 0.000001 -0.000002 9.104571 -0.042850 -1.865225 82.199483 -13.036040 11.385333 3.150059 0.000203 -0.000102 90.403585 -12.919946 13.012345 2.950036 0.000171 -0.000058 93.411532 -16.313342 17.302025 2.644319 0.000031 0.000054 0.000002 0.000000 -0.000000 8.077835 -0.486748 -3.806405 69.370338 -15.757615 11.353251 3.599975 0.000163 0.014555 70.258748 -13.402026 9.816081 2.100037 0.000154 0.007541 74.301783 -13.349300 10.509294 2.125504 -0.000027 0.007521 0.000001 -0.000001 0.000000 -8.207786 -6.751667 -1.599560 -0.077001 -0.000003 0.000080 -0.000002 -44.370110 0.345938 0.153719 -0.000000 -0.000000 0.000000 -44.423679 -3.043532 -0.076700 0.000000 -0.000002 -0.000006 -8.728667 10.710559 -0.000009 -0.000000 -0.000000 -0.000001 -0.000679 9.278123 0.000000 -0.000000 -0.000000 8.207792 -6.751710 -1.599556 -0.074518 -0.000003 0.000081 -0.000002 -44.370014 0.346960 0.148822 0.000002 0.000000 -0.000001 -44.423664 -3.044403 -0.074314 0.000000 -0.000002 -0.000004 -8.728671 10.710558 0.000007 -0.000000 -0.000000 0.000000 -0.000680 9.278137 -0.000000 0.000000 -0.000001 
0.000006 104.270477 1.554256 0.000010 0.000003 -0.000113 -0.000005 10.181587 0.131522 0.000001 -0.000003 0.000084 -0.000000 9.893967 -1.470711 0.000001 0.000000 -0.000000 -0.000000 9.220802 -1.370642 0.000000 -0.000000 -0.000000 0.000001 16.740433 -2.049030 0.000000 -0.000000 -0.000000 0.000000 9.617859 1.685014 0.000000 0.000000 0.000000 0.000002 22.037384 7.501101 0.000000 -0.000000 0.000000 -4.569968 11.014880 -2.160881 0.000008 0.000001 -0.000038 -10.592875 -0.524694 -2.232003 72.411186 11.861387 -8.697415 -27.841530 0.000019 0.000518 118.784749 63.547315 -92.631381 -28.328829 0.000006 0.000023 -0.000318 -0.000045 0.000007 -2.464482 -1.573685 2.682316 -52.414028 -179.410560 -25.712899 -3.215283 -1.872646 1.924692 156.114123 28.025593 -17.745506 -2.654952 -1.527896 1.513086 141.817485 27.610254 -43.444180 -2.018837 -1.152006 1.108061 -0.000008 0.000003 -0.000000 -9.108368 -0.517523 2.260113 96.833108 13.209181 -14.919669 -3.700052 0.000340 0.001496 96.596811 8.725988 -9.763510 -2.850080 0.000380 -0.000278 94.054369 7.448571 -7.992558 -2.772165 0.000000 -0.000020 0.000002 -0.000001 0.000001 -9.532585 0.000281 0.000164 80.227204 14.157991 -12.064047 -3.700051 0.000321 0.003889 78.503257 9.386230 -7.599732 -2.950041 0.000309 -0.001895 78.438295 9.899429 -8.080285 -2.946625 0.000001 -0.000157 0.000001 -0.000001 0.000000 -9.103692 -0.042770 -1.864949 74.470591 17.254487 -13.120935 -3.379324 0.000300 -0.000888 74.398833 9.448576 -7.191847 -2.889763 0.000332 0.000544 79.310866 6.616490 -5.524021 -2.638823 -0.000016 0.000941 0.000000 -0.000003 -0.000001 -8.076742 -0.486419 -3.806122 65.437420 17.419019 -11.140964 -3.600038 0.000227 -0.003621 64.295419 9.518024 -5.759135 -2.100003 0.000296 -0.005592 67.324806 6.039192 -3.875615 -2.115774 -0.000055 -0.003680 0.000000 -0.000001 -0.000004 4.570446 11.014691 -2.160851 -0.000018 0.000010 -0.000021 10.592357 -0.524541 -2.232265 71.606091 15.370086 -11.118383 27.841846 0.000098 -0.000249 107.643617 -64.945748 82.061820 28.328833 -0.000044 0.000018 0.000021 -0.000089 -0.000001 2.466186 -1.576118 2.681853 -5.251613 161.352182 -76.516984 3.217830 -1.871775 1.916389 163.691726 -27.144367 20.052588 2.656098 -1.528647 1.514483 143.104662 -26.585328 51.619882 2.020895 -1.154068 1.115139 -0.000002 0.000008 0.000001 9.109378 -0.517853 2.259732 89.059704 -19.350244 19.028514 3.700038 0.000175 -0.000467 85.307540 -13.502169 12.463681 2.850052 0.000187 0.000226 83.674441 -10.840408 9.709726 2.774885 -0.000033 -0.000032 -0.000000 -0.000004 0.000001 9.533464 0.000199 -0.000076 83.818524 -18.720495 16.823203 3.700040 0.000166 -0.000378 85.284768 -11.671227 10.751380 2.950068 0.000175 -0.000202 86.146423 -11.998056 11.224954 2.952853 -0.000019 0.000061 0.000000 -0.000000 0.000002 9.104585 -0.042872 -1.865222 81.310861 -18.630268 16.038046 3.150053 0.000204 -0.000080 88.279785 -12.215372 11.858400 2.950022 0.000185 -0.000081 90.323747 -10.945702 11.009100 2.644306 0.000032 0.000056 -0.000000 0.000001 0.000002 8.077847 -0.486758 -3.806387 71.543281 -19.562638 14.605876 3.600000 0.000150 0.014578 72.721769 -15.809050 12.064109 2.100022 0.000186 0.007565 75.804588 -12.197079 9.889556 2.125495 -0.000019 0.007511 0.000003 -0.000004 0.000000 -8.207786 -6.751667 -1.599560 -0.077001 -0.000003 0.000080 -0.000002 -44.370110 0.345938 0.153719 -0.000000 -0.000000 0.000000 -44.423679 -3.043532 -0.076700 0.000000 -0.000002 -0.000006 -8.728667 10.710559 -0.000009 -0.000000 -0.000000 -0.000001 -0.000679 9.278123 0.000000 -0.000000 -0.000000 8.207792 -6.751710 -1.599556 -0.074518 -0.000003 0.000081 -0.000002 -44.370014 0.346960 0.148822 0.000002 0.000000 -0.000001 -44.423664 -3.044403 -0.074314 0.000000 -0.000002 -0.000004 -8.728671 10.710558 0.000007 -0.000000 -0.000000 0.000000 -0.000680 9.278137 -0.000000 0.000000 -0.000001 
0.000006 104.270477 1.554256 0.000010 0.000003 -0.000113 -0.000005 10.181587 0.131522 0.000001 -0.000003 0.000084 -0.000000 9.893967 -1.470711 0.000001 0.000000 -0.000000 -0.000000 9.220802 -1.370642 0.000000 -0.000000 -0.000000 0.000001 16.740433 -2.049030 0.000000 -0.000000 -0.000000 0.000000 9.617859 1.685014 0.000000 0.000000 0.000000 0.000002 22.037384 7.501101 0.000000 -0.000000 0.000000 -4.569968 11.014880 -2.160881 0.000008 0.000001 -0.000038 -10.592884 -0.524726 -2.231965 71.432003 19.062631 -13.767197 -27.841524 0.000016 0.000538 120.922502 68.058491 -99.993826 -28.328817 0.000019 0.000024 -0.000318 -0.000047 0.000008 -2.464512 -1.573648 2.682292 -53.748890 -186.757234 -36.000701 -3.215274 -1.872654 1.924721 156.254251 26.144586 -28.074082 -2.654947 -1.527872 1.513093 140.756415 27.682571 -47.625406 -2.018818 -1.151984 1.108072 -0.000004 0.000000 0.000002 -9.108387 -0.517553 2.260107 96.346129 15.790682 -17.668381 -3.700064 0.000328 0.001510 97.306782 11.489403 -13.017858 -2.850049 0.000370 -0.000268 95.496167 8.811999 -9.695567 -2.772146 0.000002 -0.000020 0.000002 0.000000 -0.000001 -9.532597 0.000253 0.000185 82.021310 16.620990 -14.603911 -3.700061 0.000322 0.003898 81.144355 10.708950 -9.096676 -2.950049 0.000323 -0.001877 82.156794 9.903241 -8.631646 -2.946630 0.000001 -0.000155 0.000001 0.000004 -0.000001 -9.103697 -0.042768 -1.864935 78.094983 18.310310 -14.858655 -3.379333 0.000304 -0.000879 79.120058 9.271991 -7.679212 -2.889743 0.000361 0.000586 85.252140 5.546666 -5.146822 -2.638800 0.000015 0.000939 -0.000001 0.000003 -0.000001 -8.076737 -0.486405 -3.806101 71.299703 17.682904 -12.620675 -3.600037 0.000268 -0.003591 73.035008 9.226482 -6.570154 -2.100009 0.000309 -0.005545 77.646820 5.264551 -4.061307 -2.115767 -0.000056 -0.003675 0.000000 0.000001 -0.000003 4.570446 11.014691 -2.160851 -0.000018 0.000010 -0.000021 10.592361 -0.524525 -2.232279 71.348942 7.175045 -5.154139 27.841841 0.000088 -0.000224 108.399180 -67.243486 85.349532 28.328861 -0.000013 0.000026 0.000022 -0.000089 0.000001 2.466250 -1.576040 2.681833 8.663473 168.406374 -102.139407 3.217866 -1.871799 1.916400 165.234775 -24.489365 29.876429 2.656102 -1.528665 1.514477 143.798090 -26.311507 52.271783 2.020883 -1.154088 1.115148 0.000004 0.000004 0.000003 9.109406 -0.517848 2.259738 92.624598 -20.613974 21.544961 3.700065 0.000178 -0.000465 88.682377 -13.206114 12.924985 2.850041 0.000195 0.000201 87.429065 -10.109526 9.666715 2.774902 -0.000046 -0.000027 -0.000003 -0.000005 0.000000 9.533481 0.000223 -0.000078 87.012512 -18.739428 17.793954 3.700051 0.000202 -0.000391 89.425993 -10.226578 10.122578 2.950052 0.000199 -0.000217 90.323986 -10.081869 10.141613 2.952855 -0.000016 0.000061 0.000001 0.000001 0.000001 9.104600 -0.042852 -1.865224 86.371048 -18.168006 17.071078 3.150059 0.000206 -0.000084 90.534444 -11.941548 12.054462 2.950021 0.000197 -0.000093 90.839371 -10.003241 10.151854 2.644303 0.000033 0.000055 -0.000000 0.000001 -0.000000 8.077860 -0.486713 -3.806381 77.515817 -19.395123 16.113676 3.600005 0.000182 0.014590 77.777044 -16.121620 13.460412 2.100045 0.000179 0.007544 79.770134 -12.074379 10.506935 2.125511 -0.000027 0.007515 -0.000003 -0.000003 0.000000 -8.207786 -6.751667 -1.599560 -0.077001 -0.000003 0.000080 -0.000002 -44.370110 0.345938 0.153719 -0.000000 -0.000000 0.000000 -44.423679 -3.043532 -0.076700 0.000000 -0.000002 -0.000006 -8.728667 10.710559 -0.000009 -0.000000 -0.000000 -0.000001 -0.000679 9.278123 0.000000 -0.000000 -0.000000 8.207792 -6.751710 -1.599556 -0.074518 -0.000003 0.000081 -0.000002 -44.370014 0.346960 0.148822 0.000002 0.000000 -0.000001 -44.423664 -3.044403 -0.074314 0.000000 -0.000002 -0.000004 -8.728671 10.710558 0.000007 -0.000000 -0.000000 0.000000 -0.000680 9.278137 -0.000000 0.000000 -0.000001 
